HIERARCHY
ROOT Hips
{
	OFFSET 0.000000 1.471914 24.280096
	CHANNELS 6 Xposition Yposition Zposition Xrotation Yrotation Zrotation
	JOINT Spine
	{
		OFFSET 0.000000 0.900110 1.860670
		CHANNELS 6 Xposition Yposition Zposition Xrotation Yrotation Zrotation
		JOINT Spine1
		{
			OFFSET 0.000000 0.400320 2.270309
			CHANNELS 6 Xposition Yposition Zposition Xrotation Yrotation Zrotation
			JOINT Spine2
			{
				OFFSET 0.000000 0.200920 2.296560
				CHANNELS 6 Xposition Yposition Zposition Xrotation Yrotation Zrotation
				JOINT Spine3
				{
					OFFSET 0.000000 0.000000 2.305330
					CHANNELS 6 Xposition Yposition Zposition Xrotation Yrotation Zrotation
					JOINT Neck
					{
						OFFSET 0.000000 -0.864490 6.051487
						CHANNELS 6 Xposition Yposition Zposition Xrotation Yrotation Zrotation
						JOINT Head
						{
							OFFSET 0.000000 -0.550429 3.121674
							CHANNELS 6 Xposition Yposition Zposition Xrotation Yrotation Zrotation
							End Site
							{
								OFFSET 0.000000 0.000000 3.731750
							}
						}
					}
					JOINT RightShoulder
					{
						OFFSET -0.788280 -1.313800 4.256718
						CHANNELS 6 Xposition Yposition Zposition Xrotation Yrotation Zrotation
						JOINT RightArm
						{
							OFFSET -3.915130 0.000000 0.000000
							CHANNELS 6 Xposition Yposition Zposition Xrotation Yrotation Zrotation
							JOINT RightForeArm
							{
								OFFSET -6.914910 0.000000 0.000000
								CHANNELS 6 Xposition Yposition Zposition Xrotation Yrotation Zrotation
								JOINT RightHand
								{
									OFFSET -6.096219 0.000000 0.000000
									CHANNELS 6 Xposition Yposition Zposition Xrotation Yrotation Zrotation
									JOINT RightHandEnd
									{
										OFFSET -1.749950 0.000000 0.000000
										CHANNELS 6 Xposition Yposition Zposition Xrotation Yrotation Zrotation
										End Site
										{
											OFFSET -1.749950 0.000000 0.000000
										}
									}
									JOINT RightHandThumb1
									{
										OFFSET -0.699980 -1.166630 -0.466648
										CHANNELS 6 Xposition Yposition Zposition Xrotation Yrotation Zrotation
										End Site
										{
											OFFSET -1.690319 -0.452920 0.000000
										}
									}
								}
							}
						}
					}
					JOINT LeftShoulder
					{
						OFFSET 0.788280 -1.313800 4.256718
						CHANNELS 6 Xposition Yposition Zposition Xrotation Yrotation Zrotation
						JOINT LeftArm
						{
							OFFSET 3.915130 0.000000 0.000000
							CHANNELS 6 Xposition Yposition Zposition Xrotation Yrotation Zrotation
							JOINT LeftForeArm
							{
								OFFSET 6.914910 0.000000 0.000000
								CHANNELS 6 Xposition Yposition Zposition Xrotation Yrotation Zrotation
								JOINT LeftHand
								{
									OFFSET 6.096219 0.000000 0.000000
									CHANNELS 6 Xposition Yposition Zposition Xrotation Yrotation Zrotation
									JOINT LeftHandEnd
									{
										OFFSET 1.749950 0.000000 0.000000
										CHANNELS 6 Xposition Yposition Zposition Xrotation Yrotation Zrotation
										End Site
										{
											OFFSET 1.749950 0.000000 0.000000
										}
									}
									JOINT LeftHandThumb1
									{
										OFFSET 0.699980 -1.166630 -0.466648
										CHANNELS 6 Xposition Yposition Zposition Xrotation Yrotation Zrotation
										End Site
										{
											OFFSET 1.690319 -0.452920 0.000000
										}
									}
								}
							}
						}
					}
				}
			}
		}
	}
	JOINT RightUpLeg
	{
		OFFSET -2.338570 -0.252550 -0.551512
		CHANNELS 6 Xposition Yposition Zposition Xrotation Yrotation Zrotation
		JOINT RightLeg
		{
			OFFSET 0.000000 0.000000 -10.744959
			CHANNELS 6 Xposition Yposition Zposition Xrotation Yrotation Zrotation
			JOINT RightFoot
			{
				OFFSET 0.000000 -0.000001 -10.930849
				CHANNELS 6 Xposition Yposition Zposition Xrotation Yrotation Zrotation
				JOINT RightToeBase
				{
					OFFSET 0.000000 -4.087269 -1.487650
					CHANNELS 6 Xposition Yposition Zposition Xrotation Yrotation Zrotation
					End Site
					{
						OFFSET 0.000000 -1.891870 0.000000
					}
				}
			}
		}
	}
	JOINT LeftUpLeg
	{
		OFFSET 2.338570 -0.252550 -0.551512
		CHANNELS 6 Xposition Yposition Zposition Xrotation Yrotation Zrotation
		JOINT LeftLeg
		{
			OFFSET 0.000000 0.000000 -10.744959
			CHANNELS 6 Xposition Yposition Zposition Xrotation Yrotation Zrotation
			JOINT LeftFoot
			{
				OFFSET 0.000000 -0.000001 -10.930849
				CHANNELS 6 Xposition Yposition Zposition Xrotation Yrotation Zrotation
				JOINT LeftToeBase
				{
					OFFSET 0.000000 -4.087269 -1.487650
					CHANNELS 6 Xposition Yposition Zposition Xrotation Yrotation Zrotation
					End Site
					{
						OFFSET 0.000000 -1.891870 0.000000
					}
				}
			}
		}
	}
}
MOTION
Frames: 5
Frame Time: 0.041667
0.000001 26.675127 39.237389 -8.398434 4.066355 -23.255747 -0.000021 0.900097 1.860693 23.069859 -0.950287 -0.341102 0.000013 0.400267 2.270319 -0.000001 -0.000002 0.000009 0.000016 0.200900 2.296539 0.000001 -0.000000 0.000001 0.000030 -0.000001 2.305330 -0.000038 0.000000 -0.388741 -0.000017 -0.864463 6.051449 8.723453 -2.546477 -179.688712 0.000012 -0.550434 3.121692 -0.000006 -0.000000 -0.000006 -0.788274 -1.313731 4.256818 -123.826726 46.809786 -55.324228 -3.915111 -0.000011 -0.000019 0.000001 0.000000 -0.000001 -6.914925 -0.000005 -0.000005 0.000006 0.000002 -36.777727 -6.096190 0.000005 0.000024 0.000041 0.000178 -0.000026 -1.749896 -0.000036 0.000036 0.000002 -0.000001 -0.000003 -0.699971 -1.166631 -0.466662 -0.000011 -0.000008 0.000000 0.788260 -1.313781 4.256752 -130.400291 -54.351367 49.110587 3.915187 0.000005 -0.000034 -0.000000 -0.000001 0.000009 6.914956 -0.000044 0.000001 0.000009 -0.000002 26.188224 6.096235 0.000101 -0.000030 0.000133 -0.000206 -0.000043 1.749978 0.000012 0.000032 -0.000001 -0.000004 -0.000001 0.699942 -1.166606 -0.466635 0.000009 -0.000005 -0.000024 -2.338565 -0.252543 -0.551495 19.424517 -2.001317 -0.285523 0.000012 -0.000030 -10.744966 10.274754 -0.022177 -0.500219 -0.000023 0.000106 -10.930823 -0.000015 -0.000002 0.000000 0.000009 -4.087264 -1.487641 -0.000003 0.000002 0.000002 2.338570 -0.252547 -0.551466 18.690000 -4.496267 -0.283947 -0.000000 -0.000029 -10.744896 12.343805 1.284335 -1.142711 -0.000012 0.000027 -10.930864 0.000010 -0.000006 -0.000000 -0.000018 -4.087218 -1.487648 -0.000002 0.000001 -0.000001 
0.000003 26.675129 39.237408 -8.588444 4.125167 -23.032795 -0.000020 0.900099 1.860692 23.111851 -0.874441 -0.286381 0.000012 0.400274 2.270329 -0.000002 -0.000002 0.000007 0.000017 0.200902 2.296539 0.000001 -0.000001 -0.000003 0.000031 -0.000001 2.305334 -0.000037 0.000003 -0.289798 -0.000016 -0.864464 6.051451 8.665072 -2.399066 -180.156567 0.000010 -0.550436 3.121696 -0.000009 -0.000000 -0.000004 -0.788273 -1.313729 4.256816 -123.828912 46.622386 -55.086500 -3.915112 -0.000024 -0.000027 0.000003 0.000001 -0.000002 -6.914922 -0.000007 -0.000001 0.000002 -0.000001 -37.597521 -6.096197 0.000007 0.000023 0.000035 0.000180 -0.000026 -1.749901 -0.000033 0.000036 -0.000000 -0.000000 0.000000 -0.699977 -1.166629 -0.466658 -0.000015 -0.000005 0.000003 0.788261 -1.313779 4.256751 -132.575693 -55.537883 46.958958 3.915189 0.000006 -0.000038 0.000006 -0.000003 0.000008 6.914950 -0.000043 -0.000006 0.000007 -0.000003 26.448921 6.096234 0.000098 -0.000038 0.000132 -0.000199 -0.000044 1.749980 0.000015 0.000033 -0.000006 -0.000008 -0.000001 0.699944 -1.166605 -0.466634 0.000011 -0.000002 -0.000020 -2.338565 -0.252538 -0.551492 19.682536 -2.241556 -0.241747 0.000011 -0.000031 -10.744965 10.315274 0.406657 -0.521048 -0.000025 0.000105 -10.930828 -0.000019 -0.000000 -0.000003 0.000010 -4.087263 -1.487643 -0.000002 0.000004 -0.000000 2.338572 -0.252547 -0.551467 18.831402 -4.745096 -0.240427 -0.000002 -0.000028 -10.744892 12.325780 1.417213 -1.165594 -0.000014 0.000030 -10.930865 0.000007 -0.000004 -0.000001 -0.000017 -4.087227 -1.487648 0.000002 0.000001 -0.000003 
0.000005 26.675131 39.237411 -8.675518 4.051800 -22.908200 -0.000019 0.900092 1.860695 23.031231 -0.685643 -0.313089 0.000012 0.400271 2.270323 -0.000002 -0.000001 0.000010 0.000017 0.200901 2.296543 0.000001 -0.000001 -0.000000 0.000031 -0.000001 2.305326 -0.000038 -0.000002 0.092470 -0.000016 -0.864468 6.051450 8.713039 -2.431111 -180.188559 0.000010 -0.550434 3.121692 -0.000005 -0.000000 -0.000002 -0.788272 -1.313734 4.256818 -124.431567 47.132554 -54.360851 -3.915112 -0.000007 -0.000023 0.000001 -0.000000 -0.000003 -6.914922 -0.000012 -0.000005 0.000003 -0.000004 -38.370848 -6.096185 0.000005 0.000024 0.000038 0.000177 -0.000025 -1.749895 -0.000032 0.000035 0.000000 -0.000000 -0.000000 -0.699967 -1.166628 -0.466658 -0.000016 -0.000007 0.000002 0.788258 -1.313783 4.256754 -135.814746 -57.896153 43.877398 3.915184 0.000011 -0.000038 0.000005 -0.000002 0.000006 6.914952 -0.000043 -0.000003 0.000003 -0.000005 26.378153 6.096231 0.000099 -0.000032 0.000130 -0.000207 -0.000044 1.749974 0.000013 0.000029 0.000002 -0.000002 -0.000004 0.699940 -1.166608 -0.466637 0.000016 -0.000002 -0.000026 -2.338564 -0.252545 -0.551489 19.873726 -2.201878 -0.268081 0.000013 -0.000027 -10.744966 10.277727 0.372038 -0.523800 -0.000026 0.000100 -10.930821 -0.000019 -0.000001 -0.000002 0.000009 -4.087259 -1.487639 0.000002 0.000004 0.000001 2.338573 -0.252548 -0.551470 18.763383 -4.716340 -0.262394 -0.000000 -0.000031 -10.744900 12.377470 1.364922 -1.178784 -0.000013 0.000027 -10.930864 0.000005 -0.000007 -0.000005 -0.000018 -4.087226 -1.487645 0.000002 0.000002 -0.000007 
0.000006 26.675131 39.237408 -8.719094 4.119322 -22.693877 -0.000020 0.900093 1.860694 22.891102 -0.697833 -0.247117 0.000011 0.400269 2.270327 -0.000002 -0.000001 0.000010 0.000017 0.200902 2.296539 0.000001 -0.000001 -0.000001 0.000031 0.000000 2.305330 -0.000041 0.000001 0.158155 -0.000015 -0.864471 6.051448 9.489259 -2.426378 -180.414037 0.000010 -0.550433 3.121696 -0.000006 -0.000001 -0.000004 -0.788273 -1.313735 4.256811 -124.785043 46.854258 -53.862964 -3.915109 -0.000014 -0.000023 -0.000001 0.000000 -0.000003 -6.914928 -0.000007 -0.000001 -0.000001 -0.000004 -38.835376 -6.096183 0.000007 0.000024 0.000036 0.000178 -0.000031 -1.749895 -0.000034 0.000031 -0.000001 0.000000 -0.000002 -0.699973 -1.166633 -0.466665 -0.000015 -0.000005 -0.000003 0.788258 -1.313784 4.256752 -138.965280 -59.726070 41.173029 3.915187 0.000009 -0.000034 0.000008 -0.000000 0.000008 6.914958 -0.000044 0.000004 0.000003 -0.000004 26.733634 6.096234 0.000100 -0.000032 0.000134 -0.000201 -0.000047 1.749978 0.000018 0.000033 0.000001 -0.000005 -0.000003 0.699942 -1.166601 -0.466638 0.000013 -0.000002 -0.000022 -2.338566 -0.252545 -0.551495 19.892549 -2.253688 -0.212251 0.000014 -0.000031 -10.744961 10.398254 0.146734 -0.511303 -0.000025 0.000110 -10.930822 -0.000014 -0.000002 -0.000003 0.000010 -4.087257 -1.487639 -0.000003 0.000002 0.000001 2.338571 -0.252549 -0.551466 18.810531 -4.788659 -0.209476 -0.000001 -0.000029 -10.744897 12.627291 1.322547 -1.183786 -0.000013 0.000029 -10.930863 0.000010 -0.000006 -0.000004 -0.000018 -4.087226 -1.487646 0.000002 0.000001 -0.000001 
0.000009 26.675127 39.237404 -8.782247 4.125499 -22.643848 -0.000021 0.900096 1.860689 22.865472 -0.637119 -0.227296 0.000011 0.400270 2.270317 -0.000003 -0.000001 0.000010 0.000015 0.200904 2.296543 0.000003 -0.000000 0.000002 0.000030 0.000001 2.305333 -0.000038 0.000001 0.283866 -0.000016 -0.864465 6.051446 9.918016 -2.296821 -180.295206 0.000011 -0.550437 3.121693 -0.000006 0.000000 -0.000003 -0.788275 -1.313730 4.256815 -125.526747 47.344897 -53.080105 -3.915112 -0.000012 -0.000023 -0.000001 -0.000000 -0.000004 -6.914926 -0.000006 -0.000005 0.000001 -0.000007 -39.147854 -6.096188 0.000007 0.000023 0.000034 0.000176 -0.000026 -1.749897 -0.000032 0.000035 0.000004 0.000000 0.000000 -0.699979 -1.166632 -0.466662 -0.000013 -0.000005 0.000000 0.788256 -1.313779 4.256751 -141.179532 -60.879600 38.989025 3.915185 0.000010 -0.000030 0.000011 0.000000 0.000005 6.914957 -0.000044 0.000001 0.000003 -0.000002 27.375963 6.096237 0.000099 -0.000028 0.000140 -0.000203 -0.000043 1.749977 0.000015 0.000033 -0.000000 -0.000006 -0.000002 0.699934 -1.166602 -0.466645 0.000011 -0.000003 -0.000022 -2.338566 -0.252540 -0.551503 19.887306 -2.141432 -0.195138 0.000014 -0.000031 -10.744966 10.532582 -0.045287 -0.488722 -0.000026 0.000100 -10.930822 -0.000017 -0.000002 0.000001 0.000010 -4.087257 -1.487640 -0.000004 0.000001 -0.000004 2.338571 -0.252545 -0.551476 18.907039 -4.600702 -0.193974 0.000001 -0.000028 -10.744895 12.792559 1.068589 -1.146864 -0.000012 0.000028 -10.930861 0.000007 -0.000006 -0.000003 -0.000017 -4.087224 -1.487649 0.000003 0.000002 -0.000003 
